<svg height="400" version="1.1" width="400" xmlns="http://www.w3.org/2000/svg" xmlns:svg="http://www.w3.org/2000/svg">
	<g transform="translate(0,-652.36217)">
		<path d="m196.83777 758.68281c-44.99959 0-82.24421 33.28262-88.5775 76.52423l-3.78416 0c-30.289139 0-54.660169 22.90042-54.660169 51.29664 0 28.39591 24.37103 51.29661 54.660169 51.29661 60.64754 0 128.37903 0 183.60212 0 39.37585 0 71.05821-31.6826 71.05821-71.05852 0-39.37588-31.68236-71.05824-71.05821-71.05824l-18.92085 0c-16.27674-22.36135-42.54501-37.00072-72.31961-37.00072z" fill="#34495e"/>
		<g transform="translate(0,49.999992)">
			<path d="m183 84c0 37.00308-29.99692 67-67 67-37.003078 0-67-29.99692-67-67 0-37.003078 29.996922-67 67-67 37.00308 0 67 29.996922 67 67z" style="fill:#fff;stroke-width:8;stroke:#db4b4b" transform="translate(-11,609.36217)"/>
			<g style="fill:#42a16b" transform="matrix(1.2266281,0,0,1.2266281,37.992902,587.97814)">
				<path d="M69.191573 68.036521C67.804058 66.539583 66.241079 65.2676 64.50263 64.22057 62.764125 63.173628 60.751154 62.477638 58.463711 62.132597l0-7.271906-6.98391 0 0 7.415904c-3.416969 0.712536-6.086933 2.221515-8.009899 4.526942-1.922982 2.305511-2.900967 5.23647-2.93396 8.792887 0.09899 3.186175 1.08898 5.714764 2.969961 7.585776 1.880967 1.871062 4.058937 3.407416 6.533916 4.609065 2.474952 1.201691 4.652921 2.391549 6.533916 3.569579 1.880954 1.178065 2.87094 2.667169 2.969962 4.467319 0.009 1.65599-0.459018 2.897973-1.403983 3.725952-0.945009 0.827995-2.420988 1.241995-4.427942 1.241985-1.711494-0.003-3.400471-0.35699-5.066935-1.061987-1.66649-0.704982-3.409466-1.742967-5.228932-3.11396l-4.607941 7.127907c1.742972 1.55098 3.746944 2.78697 6.011921 3.70795 2.26496 0.92099 4.48493 1.50898 6.659916 1.76398l0 7.19991 6.98391 0 0-7.48791c3.712426-0.83699 6.511386-2.47496 8.39689-4.91393 1.885442-2.43897 2.83043-5.408924 2.834965-8.909888-0.09903-3.381314-1.089019-6.037028-2.969963-7.967147-1.881005-1.930078-4.058975-3.474306-6.533916-4.63269-2.474988-1.158333-4.652958-2.270567-6.533915-3.336707-1.880993-1.066081-2.870979-2.425812-2.969961-4.079198 0.006-1.609445 0.46198-2.782429 1.367982-3.518955 0.905971-0.736453 2.225952-1.099447 3.959949-1.088986 1.48796 0.0015 2.849941 0.304535 4.085948 0.90899 1.235958 0.60453 2.489941 1.501517 3.761951 2.690964z" style="fill:#42a16b"/>
			</g>
			<g style="fill:#42a16b" transform="matrix(0.72151001,0,0,0.72151001,99.3235,632.25164)">
				<path d="M69.191573 68.036521C67.804058 66.539583 66.241079 65.2676 64.50263 64.22057 62.764125 63.173628 60.751154 62.477638 58.463711 62.132597l0-7.271906-6.98391 0 0 7.415904c-3.416969 0.712536-6.086933 2.221515-8.009899 4.526942-1.922982 2.305511-2.900967 5.23647-2.93396 8.792887 0.09899 3.186175 1.08898 5.714764 2.969961 7.585776 1.880967 1.871062 4.058937 3.407416 6.533916 4.609065 2.474952 1.201691 4.652921 2.391549 6.533916 3.569579 1.880954 1.178065 2.87094 2.667169 2.969962 4.467319 0.009 1.65599-0.459018 2.897973-1.403983 3.725952-0.945009 0.827995-2.420988 1.241995-4.427942 1.241985-1.711494-0.003-3.400471-0.35699-5.066935-1.061987-1.66649-0.704982-3.409466-1.742967-5.228932-3.11396l-4.607941 7.127907c1.742972 1.55098 3.746944 2.78697 6.011921 3.70795 2.26496 0.92099 4.48493 1.50898 6.659916 1.76398l0 7.19991 6.98391 0 0-7.48791c3.712426-0.83699 6.511386-2.47496 8.39689-4.91393 1.885442-2.43897 2.83043-5.408924 2.834965-8.909888-0.09903-3.381314-1.089019-6.037028-2.969963-7.967147-1.881005-1.930078-4.058975-3.474306-6.533916-4.63269-2.474988-1.158333-4.652958-2.270567-6.533915-3.336707-1.880993-1.066081-2.870979-2.425812-2.969961-4.079198 0.006-1.609445 0.46198-2.782429 1.367982-3.518955 0.905971-0.736453 2.225952-1.099447 3.959949-1.088986 1.48796 0.0015 2.849941 0.304535 4.085948 0.90899 1.235958 0.60453 2.489941 1.501517 3.761951 2.690964z" style="fill:#42a16b"/>
			</g>
			<g style="fill:#42a16b" transform="matrix(0.72151001,0,0,0.72151001,31.3235,632.25164)">
				<path d="M69.191573 68.036521C67.804058 66.539583 66.241079 65.2676 64.50263 64.22057 62.764125 63.173628 60.751154 62.477638 58.463711 62.132597l0-7.271906-6.98391 0 0 7.415904c-3.416969 0.712536-6.086933 2.221515-8.009899 4.526942-1.922982 2.305511-2.900967 5.23647-2.93396 8.792887 0.09899 3.186175 1.08898 5.714764 2.969961 7.585776 1.880967 1.871062 4.058937 3.407416 6.533916 4.609065 2.474952 1.201691 4.652921 2.391549 6.533916 3.569579 1.880954 1.178065 2.87094 2.667169 2.969962 4.467319 0.009 1.65599-0.459018 2.897973-1.403983 3.725952-0.945009 0.827995-2.420988 1.241995-4.427942 1.241985-1.711494-0.003-3.400471-0.35699-5.066935-1.061987-1.66649-0.704982-3.409466-1.742967-5.228932-3.11396l-4.607941 7.127907c1.742972 1.55098 3.746944 2.78697 6.011921 3.70795 2.26496 0.92099 4.48493 1.50898 6.659916 1.76398l0 7.19991 6.98391 0 0-7.48791c3.712426-0.83699 6.511386-2.47496 8.39689-4.91393 1.885442-2.43897 2.83043-5.408924 2.834965-8.909888-0.09903-3.381314-1.089019-6.037028-2.969963-7.967147-1.881005-1.930078-4.058975-3.474306-6.533916-4.63269-2.474988-1.158333-4.652958-2.270567-6.533915-3.336707-1.880993-1.066081-2.870979-2.425812-2.969961-4.079198 0.006-1.609445 0.46198-2.782429 1.367982-3.518955 0.905971-0.736453 2.225952-1.099447 3.959949-1.088986 1.48796 0.0015 2.849941 0.304535 4.085948 0.90899 1.235958 0.60453 2.489941 1.501517 3.761951 2.690964z" style="fill:#42a16b"/>
			</g>
			<path d="m58.623847 739.73832 94.752303-94.7523" style="fill:none;stroke-width:8;stroke:#db4b4b"/>
		</g>
		<g transform="matrix(1.25,0,0,1.25,-72,-183.09056)">
			<rect fill="#a6a6a8" height="96" rx="5" ry="5" width="90" x="272" y="848.36218"/>
			<rect fill="#44434d" height="86" width="90" x="272" y="853.36218"/>
			<rect fill="#70c0f2" height="4" width="26" x="336" y="864.36212"/>
			<rect fill="#70c0f2" height="4" width="26" x="336" y="876.36218"/>
			<rect fill="#70c0f2" height="4" width="26" x="336" y="888.36212"/>
			<rect fill="#70c0f2" height="4" width="26" x="336" y="900.36218"/>
			<rect fill="#1c1c1c" height="4" width="64" x="272" y="864.36212"/>
			<rect fill="#1c1c1c" height="4" width="64" x="272" y="876.36218"/>
			<rect fill="#1c1c1c" height="4" width="64" x="272" y="888.36212"/>
			<rect fill="#1c1c1c" height="4" width="64" x="272" y="900.36218"/>
		</g>
	</g>
</svg>
