<?xml version="1.0" encoding="UTF-8" standalone="no"?>
<!-- Created with Inkscape (http://www.inkscape.org/) -->

<svg
   xmlns:dc="http://purl.org/dc/elements/1.1/"
   xmlns:cc="http://creativecommons.org/ns#"
   xmlns:rdf="http://www.w3.org/1999/02/22-rdf-syntax-ns#"
   xmlns:svg="http://www.w3.org/2000/svg"
   xmlns="http://www.w3.org/2000/svg"
   xmlns:sodipodi="http://sodipodi.sourceforge.net/DTD/sodipodi-0.dtd"
   xmlns:inkscape="http://www.inkscape.org/namespaces/inkscape"
   width="400"
   height="500"
   id="svg2"
   version="1.1"
   inkscape:version="0.48.4 r9939"
   sodipodi:docname="features.svg">
  <defs
     id="defs4">
    <inkscape:perspective
       sodipodi:type="inkscape:persp3d"
       inkscape:vp_x="0 : 384 : 1"
       inkscape:vp_y="0 : 1000 : 0"
       inkscape:vp_z="816 : 194 : 1"
       inkscape:persp3d-origin="512 : 256 : 1"
       id="perspective3102" />
  </defs>
  <sodipodi:namedview
     id="base"
     pagecolor="#ffffff"
     bordercolor="#666666"
     borderopacity="1.0"
     inkscape:pageopacity="0.0"
     inkscape:pageshadow="2"
     inkscape:zoom="1"
     inkscape:cx="356"
     inkscape:cy="221.71573"
     inkscape:document-units="px"
     inkscape:current-layer="layer1"
     showgrid="false"
     showguides="true"
     inkscape:window-width="1920"
     inkscape:window-height="1027"
     inkscape:window-x="-8"
     inkscape:window-y="-8"
     inkscape:window-maximized="1"
     inkscape:snap-page="false">
    <inkscape:grid
       type="xygrid"
       id="grid2985"
       empspacing="5"
       visible="true"
       enabled="true"
       snapvisiblegridlinesonly="true" />
  </sodipodi:namedview>
  <metadata
     id="metadata7">
    <rdf:RDF>
      <cc:Work
         rdf:about="">
        <dc:format>image/svg+xml</dc:format>
        <dc:type
           rdf:resource="http://purl.org/dc/dcmitype/StillImage" />
        <dc:title></dc:title>
      </cc:Work>
    </rdf:RDF>
  </metadata>
  <g
     inkscape:label="Layer 1"
     inkscape:groupmode="layer"
     id="layer1"
     transform="translate(0,-552.36217)">
    <path
       style="fill:#34495e;fill-opacity:1"
       d="m 196.83777,708.68282 c -44.99959,0 -82.24421,33.28262 -88.5775,76.52423 l -3.78416,0 c -30.289139,0 -54.660169,22.90042 -54.660169,51.29664 0,28.39591 24.37103,51.29661 54.660169,51.29661 60.64754,0 128.37903,0 183.60212,0 39.37585,0 71.05821,-31.6826 71.05821,-71.05852 0,-39.37588 -31.68236,-71.05824 -71.05821,-71.05824 l -18.92085,0 c -16.27674,-22.36135 -42.54501,-37.00072 -72.31961,-37.00072 z"
       id="path2989"
       inkscape:connector-curvature="0"
       sodipodi:nodetypes="scssccsscs" />
    <g
       id="g3911">
      <path
         transform="translate(-11,609.36217)"
         d="M 183,84 A 67,67 0 1 1 49,84 67,67 0 1 1 183,84 z"
         sodipodi:ry="67"
         sodipodi:rx="67"
         sodipodi:cy="84"
         sodipodi:cx="116"
         id="path3830"
         style="fill:#ffffff;fill-opacity:1;stroke:#db4b4b;stroke-width:8;stroke-miterlimit:4;stroke-opacity:1;stroke-dasharray:none"
         sodipodi:type="arc" />
      <g
         id="flowRoot3013"
         style="font-size:40px;font-style:normal;font-variant:normal;font-weight:bold;font-stretch:normal;line-height:125%;letter-spacing:0px;word-spacing:0px;fill:#42a16b;fill-opacity:1;stroke:none;font-family:Source Sans Pro;-inkscape-font-specification:Source Sans Pro Bold"
         transform="matrix(1.2266281,0,0,1.2266281,37.992902,587.97814)">
        <path
           id="path3906"
           style="font-size:72px;writing-mode:lr-tb;fill:#42a16b;-inkscape-font-specification:Source Sans Pro Bold"
           d="M 69.191573,68.036521 C 67.804058,66.539583 66.241079,65.2676 64.50263,64.22057 62.764125,63.173628 60.751154,62.477638 58.463711,62.132597 l 0,-7.271906 -6.98391,0 0,7.415904 c -3.416969,0.712536 -6.086933,2.221515 -8.009899,4.526942 -1.922982,2.305511 -2.900967,5.23647 -2.93396,8.792887 0.09899,3.186175 1.08898,5.714764 2.969961,7.585776 1.880967,1.871062 4.058937,3.407416 6.533916,4.609065 2.474952,1.201691 4.652921,2.391549 6.533916,3.569579 1.880954,1.178065 2.87094,2.667169 2.969962,4.467319 0.009,1.65599 -0.459018,2.897973 -1.403983,3.725952 -0.945009,0.827995 -2.420988,1.241995 -4.427942,1.241985 -1.711494,-0.003 -3.400471,-0.35699 -5.066935,-1.061987 -1.66649,-0.704982 -3.409466,-1.742967 -5.228932,-3.11396 l -4.607941,7.127907 c 1.742972,1.55098 3.746944,2.78697 6.011921,3.70795 2.26496,0.92099 4.48493,1.50898 6.659916,1.76398 l 0,7.19991 6.98391,0 0,-7.48791 c 3.712426,-0.83699 6.511386,-2.47496 8.39689,-4.91393 1.885442,-2.43897 2.83043,-5.408924 2.834965,-8.909888 -0.09903,-3.381314 -1.089019,-6.037028 -2.969963,-7.967147 -1.881005,-1.930078 -4.058975,-3.474306 -6.533916,-4.63269 -2.474988,-1.158333 -4.652958,-2.270567 -6.533915,-3.336707 -1.880993,-1.066081 -2.870979,-2.425812 -2.969961,-4.079198 0.006,-1.609445 0.46198,-2.782429 1.367982,-3.518955 0.905971,-0.736453 2.225952,-1.099447 3.959949,-1.088986 1.48796,0.0015 2.849941,0.304535 4.085948,0.90899 1.235958,0.60453 2.489941,1.501517 3.761951,2.690964 z" />
      </g>
      <g
         id="flowRoot3013-1"
         style="font-size:40px;font-style:normal;font-variant:normal;font-weight:bold;font-stretch:normal;line-height:125%;letter-spacing:0px;word-spacing:0px;fill:#42a16b;fill-opacity:1;stroke:none;font-family:Source Sans Pro;-inkscape-font-specification:Source Sans Pro Bold"
         transform="matrix(0.72151001,0,0,0.72151001,99.3235,632.25164)">
        <path
           id="path3903"
           style="font-size:72px;writing-mode:lr-tb;fill:#42a16b;-inkscape-font-specification:Source Sans Pro Bold"
           d="M 69.191573,68.036521 C 67.804058,66.539583 66.241079,65.2676 64.50263,64.22057 62.764125,63.173628 60.751154,62.477638 58.463711,62.132597 l 0,-7.271906 -6.98391,0 0,7.415904 c -3.416969,0.712536 -6.086933,2.221515 -8.009899,4.526942 -1.922982,2.305511 -2.900967,5.23647 -2.93396,8.792887 0.09899,3.186175 1.08898,5.714764 2.969961,7.585776 1.880967,1.871062 4.058937,3.407416 6.533916,4.609065 2.474952,1.201691 4.652921,2.391549 6.533916,3.569579 1.880954,1.178065 2.87094,2.667169 2.969962,4.467319 0.009,1.65599 -0.459018,2.897973 -1.403983,3.725952 -0.945009,0.827995 -2.420988,1.241995 -4.427942,1.241985 -1.711494,-0.003 -3.400471,-0.35699 -5.066935,-1.061987 -1.66649,-0.704982 -3.409466,-1.742967 -5.228932,-3.11396 l -4.607941,7.127907 c 1.742972,1.55098 3.746944,2.78697 6.011921,3.70795 2.26496,0.92099 4.48493,1.50898 6.659916,1.76398 l 0,7.19991 6.98391,0 0,-7.48791 c 3.712426,-0.83699 6.511386,-2.47496 8.39689,-4.91393 1.885442,-2.43897 2.83043,-5.408924 2.834965,-8.909888 -0.09903,-3.381314 -1.089019,-6.037028 -2.969963,-7.967147 -1.881005,-1.930078 -4.058975,-3.474306 -6.533916,-4.63269 -2.474988,-1.158333 -4.652958,-2.270567 -6.533915,-3.336707 -1.880993,-1.066081 -2.870979,-2.425812 -2.969961,-4.079198 0.006,-1.609445 0.46198,-2.782429 1.367982,-3.518955 0.905971,-0.736453 2.225952,-1.099447 3.959949,-1.088986 1.48796,0.0015 2.849941,0.304535 4.085948,0.90899 1.235958,0.60453 2.489941,1.501517 3.761951,2.690964 z" />
      </g>
      <g
         id="flowRoot3822"
         style="font-size:40px;font-style:normal;font-variant:normal;font-weight:bold;font-stretch:normal;line-height:125%;letter-spacing:0px;word-spacing:0px;fill:#42a16b;fill-opacity:1;stroke:none;font-family:Source Sans Pro;-inkscape-font-specification:Source Sans Pro Bold"
         transform="matrix(0.72151001,0,0,0.72151001,31.3235,632.25164)">
        <path
           id="path3909"
           style="font-size:72px;writing-mode:lr-tb;fill:#42a16b;-inkscape-font-specification:Source Sans Pro Bold"
           d="M 69.191573,68.036521 C 67.804058,66.539583 66.241079,65.2676 64.50263,64.22057 62.764125,63.173628 60.751154,62.477638 58.463711,62.132597 l 0,-7.271906 -6.98391,0 0,7.415904 c -3.416969,0.712536 -6.086933,2.221515 -8.009899,4.526942 -1.922982,2.305511 -2.900967,5.23647 -2.93396,8.792887 0.09899,3.186175 1.08898,5.714764 2.969961,7.585776 1.880967,1.871062 4.058937,3.407416 6.533916,4.609065 2.474952,1.201691 4.652921,2.391549 6.533916,3.569579 1.880954,1.178065 2.87094,2.667169 2.969962,4.467319 0.009,1.65599 -0.459018,2.897973 -1.403983,3.725952 -0.945009,0.827995 -2.420988,1.241995 -4.427942,1.241985 -1.711494,-0.003 -3.400471,-0.35699 -5.066935,-1.061987 -1.66649,-0.704982 -3.409466,-1.742967 -5.228932,-3.11396 l -4.607941,7.127907 c 1.742972,1.55098 3.746944,2.78697 6.011921,3.70795 2.26496,0.92099 4.48493,1.50898 6.659916,1.76398 l 0,7.19991 6.98391,0 0,-7.48791 c 3.712426,-0.83699 6.511386,-2.47496 8.39689,-4.91393 1.885442,-2.43897 2.83043,-5.408924 2.834965,-8.909888 -0.09903,-3.381314 -1.089019,-6.037028 -2.969963,-7.967147 -1.881005,-1.930078 -4.058975,-3.474306 -6.533916,-4.63269 -2.474988,-1.158333 -4.652958,-2.270567 -6.533915,-3.336707 -1.880993,-1.066081 -2.870979,-2.425812 -2.969961,-4.079198 0.006,-1.609445 0.46198,-2.782429 1.367982,-3.518955 0.905971,-0.736453 2.225952,-1.099447 3.959949,-1.088986 1.48796,0.0015 2.849941,0.304535 4.085948,0.90899 1.235958,0.60453 2.489941,1.501517 3.761951,2.690964 z" />
      </g>
      <path
         inkscape:connector-curvature="0"
         id="path3832"
         d="m 58.623847,739.73832 94.752303,-94.7523"
         style="fill:none;stroke:#db4b4b;stroke-width:8;stroke-linecap:butt;stroke-linejoin:miter;stroke-miterlimit:4;stroke-opacity:1;stroke-dasharray:none" />
    </g>
    <g
       id="g3874"
       transform="matrix(1.25,0,0,1.25,-72,-233.09055)">
      <rect
         ry="5"
         rx="5"
         y="848.36218"
         x="272"
         height="96"
         width="90"
         id="rect3852"
         style="fill:#a6a6a8;fill-opacity:1;stroke:none" />
      <rect
         y="853.36218"
         x="272"
         height="86"
         width="90"
         id="rect3850"
         style="fill:#44434d;fill-opacity:1;stroke:none" />
      <rect
         y="864.36212"
         x="336"
         height="4"
         width="26"
         id="rect3854"
         style="fill:#70c0f2;fill-opacity:1;stroke:none" />
      <rect
         style="fill:#70c0f2;fill-opacity:1;stroke:none"
         id="rect3856"
         width="26"
         height="4"
         x="336"
         y="876.36218" />
      <rect
         y="888.36212"
         x="336"
         height="4"
         width="26"
         id="rect3860"
         style="fill:#70c0f2;fill-opacity:1;stroke:none" />
      <rect
         style="fill:#70c0f2;fill-opacity:1;stroke:none"
         id="rect3864"
         width="26"
         height="4"
         x="336"
         y="900.36218" />
      <rect
         style="fill:#1c1c1c;fill-opacity:1;stroke:none"
         id="rect3866"
         width="64"
         height="4"
         x="272"
         y="864.36212" />
      <rect
         y="876.36218"
         x="272"
         height="4"
         width="64"
         id="rect3868"
         style="fill:#1c1c1c;fill-opacity:1;stroke:none" />
      <rect
         style="fill:#1c1c1c;fill-opacity:1;stroke:none"
         id="rect3870"
         width="64"
         height="4"
         x="272"
         y="888.36212" />
      <rect
         y="900.36218"
         x="272"
         height="4"
         width="64"
         id="rect3872"
         style="fill:#1c1c1c;fill-opacity:1;stroke:none" />
    </g>
  </g>
</svg>
